<?xml version="1.0" encoding="utf-8"?>
<!-- Generator: Adobe Illustrator 25.2.0, SVG Export Plug-In . SVG Version: 6.00 Build 0)  -->
<svg version="1.1" id="Layer_1" xmlns="http://www.w3.org/2000/svg" xmlns:xlink="http://www.w3.org/1999/xlink" x="0px" y="0px"
	 viewBox="0 0 144 446" style="enable-background:new 0 0 144 446;" xml:space="preserve">
<style type="text/css">
	.st0{clip-path:url(#SVGID_2_);}
	.st1{fill:#D9D9D9;filter:url(#Adobe_OpacityMaskFilter);}
	.st2{mask:url(#mask0_3857_40175_1_);}
	.st3{fill:#243640;}
	.st4{opacity:0.8;fill-rule:evenodd;clip-rule:evenodd;fill:#243640;enable-background:new    ;}
</style>
<g>
	<defs>
		<rect id="SVGID_1_" width="144" height="446"/>
	</defs>
	<clipPath id="SVGID_2_">
		<use xlink:href="#SVGID_1_"  style="overflow:visible;"/>
	</clipPath>
	<g class="st0">
		<defs>
			<filter id="Adobe_OpacityMaskFilter" filterUnits="userSpaceOnUse" x="32" y="-4.7" width="267.2" height="452.7">
				<feColorMatrix  type="matrix" values="1 0 0 0 0  0 1 0 0 0  0 0 1 0 0  0 0 0 1 0"/>
			</filter>
		</defs>
		<mask maskUnits="userSpaceOnUse" x="32" y="-4.7" width="267.2" height="452.7" id="mask0_3857_40175_1_">
			<rect x="-17" class="st1" width="161" height="484"/>
		</mask>
		<g class="st2">
			<path class="st3" d="M297.8,74.1l-35.9,160.1c0.7,57.5-92.6,94.2-139.7,63.1C75.1,266.1,33.7,265,42,148.4
				C50.4,31.8,146.4,11.3,188.7-0.5c42.3-11.8,77.4,3.9,97,17.7C301.3,28.3,300.3,59.8,297.8,74.1z"/>
			<path class="st4" d="M137.9,227c29.9,6.3,35.7,45.5,51.4,71.8c10,16.7,17.8,32.6,22.2,51.6c6.6,28.2,27.5,60.7,9.1,83.1
				c-18.3,22.3-55.1,14.4-82.7,6.5c-21-6-29.4-29-46-43.3c-19.5-16.8-51.5-21.3-57.9-46.2c-7.2-27.8,7-56.9,25.4-78.9
				C79.5,247.5,107.3,220.5,137.9,227z"/>
		</g>
	</g>
</g>
</svg>
