<?xml version="1.0" encoding="utf-8"?>
<!-- Generator: Adobe Illustrator 25.2.0, SVG Export Plug-In . SVG Version: 6.00 Build 0)  -->
<svg version="1.1" id="Layer_1" xmlns="http://www.w3.org/2000/svg" xmlns:xlink="http://www.w3.org/1999/xlink" x="0px" y="0px"
	 viewBox="0 0 445 262" style="enable-background:new 0 0 445 262;" xml:space="preserve">
<style type="text/css">
	.st0{clip-path:url(#SVGID_2_);}
	.st1{fill:#D9D9D9;filter:url(#Adobe_OpacityMaskFilter);}
	.st2{mask:url(#mask0_4591_42110_1_);}
	.st3{opacity:0.75;fill:#243640;}
	.st4{fill:#243640;}
	.st5{clip-path:url(#SVGID_4_);}
	.st6{fill-rule:evenodd;clip-rule:evenodd;fill:#FFFFFF;fill-opacity:0.8;}
	.st7{clip-path:url(#SVGID_6_);}
	.st8{fill:#FFFFFF;}
</style>
<g>
	<defs>
		<rect id="SVGID_1_" width="445" height="262"/>
	</defs>
	<clipPath id="SVGID_2_">
		<use xlink:href="#SVGID_1_"  style="overflow:visible;"/>
	</clipPath>
	<g class="st0">
		<defs>
			<filter id="Adobe_OpacityMaskFilter" filterUnits="userSpaceOnUse" x="-62" y="-151" width="619" height="434">
				<feColorMatrix  type="matrix" values="1 0 0 0 0  0 1 0 0 0  0 0 1 0 0  0 0 0 1 0"/>
			</filter>
		</defs>
		<mask maskUnits="userSpaceOnUse" x="-62" y="-151" width="619" height="434" id="mask0_4591_42110_1_">
			<rect x="-13" y="-20" class="st1" width="458" height="282"/>
		</mask>
		<g class="st2">
			<path class="st3" d="M557-97v297.8c-16.4-66-187.8,39.3-312.5-17.2C137.9,155,146.9-110.4,0-151L557-97z"/>
			<path class="st4" d="M467-151v297.8c-15.7-66-180.1,39.3-299.6-17.2C85.4,90.8,78.9-110.4-62-151H467z"/>
			<g>
				<defs>
					<rect id="SVGID_3_" x="301" y="217" width="54.9" height="22.8"/>
				</defs>
				<clipPath id="SVGID_4_">
					<use xlink:href="#SVGID_3_"  style="overflow:visible;"/>
				</clipPath>
				<g class="st5">
					<path class="st4" d="M336.7,223.3c1.7,0,3.2-1.4,3.2-3.2c0-1.7-1.4-3.2-3.2-3.2s-3.2,1.4-3.2,3.2
						C333.5,221.9,334.9,223.3,336.7,223.3z"/>
					<path class="st4" d="M336.7,239.8c1.7,0,3.2-1.4,3.2-3.2c0-1.7-1.4-3.2-3.2-3.2s-3.2,1.4-3.2,3.2
						C333.5,238.4,334.9,239.8,336.7,239.8z"/>
					<path class="st4" d="M352.7,223.3c1.7,0,3.2-1.4,3.2-3.2c0-1.7-1.4-3.2-3.2-3.2s-3.2,1.4-3.2,3.2
						C349.6,221.9,351,223.3,352.7,223.3z"/>
					<path class="st4" d="M352.7,239.8c1.7,0,3.2-1.4,3.2-3.2c0-1.7-1.4-3.2-3.2-3.2s-3.2,1.4-3.2,3.2
						C349.6,238.4,351,239.8,352.7,239.8z"/>
					<path class="st4" d="M304.2,223.3c1.7,0,3.2-1.4,3.2-3.2c0-1.7-1.4-3.2-3.2-3.2s-3.2,1.4-3.2,3.2
						C301,221.9,302.4,223.3,304.2,223.3z"/>
					<path class="st4" d="M304.2,239.8c1.7,0,3.2-1.4,3.2-3.2c0-1.7-1.4-3.2-3.2-3.2s-3.2,1.4-3.2,3.2
						C301,238.4,302.4,239.8,304.2,239.8z"/>
					<path class="st4" d="M320.2,223.3c1.7,0,3.2-1.4,3.2-3.2c0-1.7-1.4-3.2-3.2-3.2s-3.2,1.4-3.2,3.2
						C317,221.9,318.5,223.3,320.2,223.3z"/>
					<path class="st4" d="M320.2,239.8c1.7,0,3.2-1.4,3.2-3.2c0-1.7-1.4-3.2-3.2-3.2s-3.2,1.4-3.2,3.2
						C317,238.4,318.5,239.8,320.2,239.8z"/>
				</g>
			</g>
			<path class="st6" d="M462.9,62c29.9,6.3,35.7,45.5,51.4,71.8c10,16.7,17.8,32.6,22.2,51.6c6.6,28.2,27.5,60.7,9.1,83.1
				c-18.3,22.3-55.1,14.4-82.7,6.5c-21-6-29.4-29-46-43.3c-19.5-16.8-51.5-21.3-57.9-46.2c-7.2-27.8,7-56.9,25.4-78.9
				C404.5,82.5,432.3,55.5,462.9,62z"/>
			<g>
				<defs>
					<rect id="SVGID_5_" x="291" y="36" width="74.6" height="74.6"/>
				</defs>
				<clipPath id="SVGID_6_">
					<use xlink:href="#SVGID_5_"  style="overflow:visible;"/>
				</clipPath>
				<g class="st7">
					<path class="st8" d="M328.3,36C307.7,36,291,52.7,291,73.3s16.7,37.3,37.3,37.3c20.6,0,37.3-16.7,37.3-37.3S348.9,36,328.3,36z
						 M328.3,103.3c-16.6,0-30-13.4-30-30s13.4-30,30-30c16.5,0,30,13.4,30,30S344.9,103.3,328.3,103.3L328.3,103.3z"/>
				</g>
			</g>
		</g>
	</g>
</g>
<rect x="564.7" y="45" class="st4" width="57" height="73"/>
</svg>
